Jump_normalized_Motion_pl05
version=1
nRows=16
nColumns=43
inDegrees=yes
endheader
time		pelvis_tilt		pelvis_list		pelvis_rotation		pelvis_tx		pelvis_ty		pelvis_tz		hip_flexion_r		hip_adduction_r		hip_rotation_r		knee_angle_r		ankle_angle_r		subtalar_angle_r		mtp_angle_r		hip_flexion_l		hip_adduction_l		hip_rotation_l		knee_angle_l		ankle_angle_l		subtalar_angle_l		mtp_angle_l		lumbar_extension		lumbar_bending		lumbar_rotation		neck_flexion		neck_lateral_bending		neck_rotation		arm_flex_r		arm_add_r		arm_rot_r		elbow_flex_r		pro_sup_r		wrist_flex_r		wrist_dev_r		hand_finger_flex_r		arm_flex_l		arm_add_l		arm_rot_l		elbow_flex_l		pro_sup_l		wrist_flex_l		wrist_dev_l		hand_finger_flex_l		
0.557500		3.200523		-15.557775		87.661867		0.057920		1.771730		1.923734		88.396203		6.972759		-3.011530		-131.055969		27.964293		-3.596360		-1.880470		89.785216		-9.400695		2.257758		-135.224901		21.520479		-2.935850		27.094970		-55.777252		-0.829911		2.396218		38.899664		0.096400		3.594488		30.131755		-21.719423		2.971463		78.971059		155.568834		-1.170383		3.688236		-27.080211		19.392782		-24.426318		-10.911432		77.547905		119.158754		-5.178509		-3.215240		25.144097		
0.561641		3.144944		-15.690531		87.661209		0.058168		1.771845		1.922412		88.389561		7.026911		-2.928827		-131.081880		27.937460		-3.554282		-1.811118		89.743341		-9.448622		2.198914		-135.227918		21.554863		-2.922963		27.084959		-55.599104		-0.943389		2.397630		39.145050		0.260695		3.443294		31.428642		-21.865200		3.456011		79.065280		155.814131		-0.953694		3.578139		-27.012307		20.783395		-24.886111		-10.310066		78.067237		119.229266		-5.154898		-3.075091		25.457051		
0.565783		3.075267		-15.848592		87.652764		0.058305		1.772066		1.921010		88.376859		7.073586		-2.830824		-131.077490		27.919868		-3.555475		-1.743790		89.692324		-9.487031		2.129827		-135.188872		21.563091		-2.911666		27.074968		-55.385955		-1.033440		2.412572		39.235963		0.319687		3.336476		32.650748		-21.947470		3.804593		79.228216		156.112136		-0.731590		3.477284		-27.034935		22.179416		-25.148154		-9.861334		78.608936		119.221342		-5.216672		-2.924401		25.754112		
0.569924		2.999583		-16.015600		87.641945		0.058524		1.772279		1.919562		88.375909		7.103255		-2.747249		-131.083685		27.892232		-3.594905		-1.678065		89.654344		-9.504581		2.062625		-135.171400		21.554579		-2.903635		27.065349		-55.139370		-1.136630		2.445475		39.283910		0.300807		3.237859		33.858675		-22.051143		4.135367		79.431078		156.471871		-0.467609		3.364877		-27.141371		23.605770		-25.359889		-9.445081		79.079890		119.208850		-5.290737		-2.753867		26.073037		
0.574066		2.933612		-16.218867		87.638302		0.058628		1.772585		1.918084		88.390842		7.141854		-2.668871		-131.061288		27.855082		-3.666935		-1.623101		89.642991		-9.524850		2.001540		-135.125013		21.534170		-2.883186		27.057593		-54.853549		-1.194433		2.486561		39.306060		0.227777		3.150616		35.048401		-22.154263		4.442030		79.654252		156.766150		-0.212439		3.273593		-27.293797		25.068125		-25.491347		-9.050069		79.521168		119.246888		-5.341233		-2.620339		26.375480		
0.578207		2.881291		-16.432774		87.635516		0.058707		1.772928		1.916616		88.421673		7.172363		-2.590755		-131.023651		27.809948		-3.745658		-1.583000		89.646759		-9.538909		1.945031		-135.069968		21.504487		-2.841454		27.051950		-54.550918		-1.237583		2.536940		39.316955		0.143929		3.071045		36.221897		-22.263956		4.750267		79.887616		156.914366		0.001469		3.206994		-27.423126		26.544600		-25.625613		-8.666018		79.971793		119.348631		-5.357487		-2.531253		26.628986		
0.582348		2.821624		-16.648058		87.637842		0.058811		1.773317		1.915129		88.442687		7.197162		-2.523045		-130.978908		27.754271		-3.808614		-1.553742		89.655417		-9.548305		1.894176		-135.007198		21.464154		-2.775028		27.047496		-54.244572		-1.288992		2.567620		39.327003		0.080952		2.990168		37.406619		-22.380315		5.060671		80.129202		156.900850		0.184845		3.173825		-27.509058		28.025287		-25.787349		-8.238762		80.453532		119.497544		-5.354628		-2.461417		26.846892		
0.586490		2.773602		-16.847945		87.659738		0.058955		1.773797		1.913601		88.432844		7.206114		-2.471910		-130.925547		27.703070		-3.830649		-1.535842		89.648883		-9.552770		1.860903		-134.935938		21.413868		-2.679819		27.044158		-53.950834		-1.337540		2.581665		39.339990		0.065891		2.909726		38.609481		-22.482953		5.367864		80.357390		156.728043		0.346282		3.165981		-27.524807		29.508742		-26.002213		-7.763165		80.984524		119.649670		-5.354541		-2.403517		27.012863		
0.590631		2.757911		-17.013653		87.712489		0.059140		1.774461		1.911971		88.353806		7.198385		-2.463045		-130.851808		27.673790		-3.819701		-1.527526		89.595346		-9.552068		1.873178		-134.851967		21.362281		-2.558860		27.041864		-53.698710		-1.364519		2.592558		39.355110		0.092442		2.829247		39.834596		-22.559729		5.670390		80.567481		156.456271		0.502010		3.174396		-27.480132		31.004752		-26.249928		-7.240720		81.546662		119.766708		-5.377345		-2.349062		27.131199		
0.594773		2.821477		-17.110995		87.817971		0.059339		1.775451		1.910199		88.148449		7.189847		-2.532873		-130.743843		27.683461		-3.804043		-1.531606		89.459983		-9.558423		1.969232		-134.745574		21.319482		-2.410938		27.041104		-53.521427		-1.331781		2.611905		39.406320		0.155254		2.749234		41.104494		-22.599079		5.983378		80.742276		156.151196		0.662340		3.182152		-27.380734		32.543651		-26.513616		-6.656747		82.105943		119.822689		-5.425233		-2.310480		27.190713		
0.598914		3.022641		-17.028524		88.018500		0.059806		1.777155		1.908108		87.637999		7.180685		-2.791142		-130.545054		27.746114		-3.878073		-1.564076		89.082402		-9.568358		2.259315		-134.597955		21.303908		-2.184500		27.043388		-53.604439		-1.201694		2.748381		39.454781		0.227771		2.659300		42.408138		-22.667723		6.299693		80.969377		155.780687		0.811193		3.243649		-27.237266		34.163857		-26.832680		-5.973343		82.683583		119.755949		-5.573575		-2.286944		27.173754		
0.603056		3.300199		-16.960643		88.219695		0.060275		1.779154		1.905946		87.084889		7.232511		-3.119518		-130.282172		27.807733		-4.046204		-1.621689		88.710992		-9.618201		2.609502		-134.416818		21.326502		-1.958762		27.048933		-53.686286		-1.023876		2.937722		39.609272		0.269724		2.576659		43.748701		-22.630644		6.550907		81.139767		155.493433		0.897530		3.349521		-27.124211		35.830750		-26.996604		-5.375494		83.149720		119.604379		-5.768817		-2.302205		27.096510		
0.607197		3.648579		-16.834254		88.436045		0.060867		1.781419		1.903719		86.459675		7.317262		-3.536566		-129.957719		27.855295		-4.317470		-1.714447		88.249635		-9.699096		3.049453		-134.217930		21.349755		-1.711943		27.058578		-53.844174		-0.812972		3.192109		39.767992		0.292455		2.487380		45.074874		-22.681818		6.876021		81.386969		155.254401		0.938842		3.482606		-27.043727		37.550642		-27.230476		-4.679060		83.636836		119.407810		-5.961789		-2.367529		26.981004		
0.611338		3.843578		-16.849659		88.566475		0.061426		1.783419		1.901624		86.026844		7.404824		-3.770954		-129.666341		27.884304		-4.484792		-1.755819		87.913949		-9.775220		3.287396		-133.991626		21.300790		-1.635700		27.063168		-53.835505		-0.717923		3.346128		39.932965		0.311428		2.437908		46.389709		-22.743684		7.241070		81.627303		155.193961		0.966138		3.545548		-27.044065		39.270041		-27.450458		-4.035521		84.106307		119.392143		-5.950321		-2.466972		26.920507		
0.615480		3.997775		-16.832677		88.643150		0.061981		1.785303		1.899501		85.585498		7.491439		-3.991854		-129.407967		27.881343		-4.693862		-1.799950		87.550281		-9.852400		3.483443		-133.787836		21.221168		-1.599811		27.070032		-53.837762		-0.680065		3.568204		39.984814		0.269593		2.338148		47.612521		-22.982870		7.651898		82.043014		155.034660		0.926989		3.799265		-27.117957		41.039801		-27.605765		-3.286734		84.551984		119.336405		-5.966331		-2.522487		26.825772		
0.619621		4.053660		-16.949352		88.663443		0.062479		1.786711		1.897486		85.344608		7.570093		-4.095191		-129.210620		27.854622		-4.857105		-1.838547		87.330043		-9.934847		3.546901		-133.602612		21.116503		-1.637182		27.082894		-53.649921		-0.726382		3.788122		39.954642		0.190780		2.167894		48.742630		-23.397904		8.132391		82.560775		154.691599		0.855734		4.239662		-27.269183		42.833381		-27.706201		-2.439893		84.956031		119.206185		-6.001803		-2.518356		26.706503		
